<svg width="16" height="16" viewBox="0 0 16 16" fill="none" xmlns="http://www.w3.org/2000/svg">
<rect width="16" height="16" rx="4" fill="#61C6DA"/>
<path d="M5.132 5.34C5.132 5.96533 5.02 6.67467 4.796 7.468C4.81467 7.76667 4.824 8.056 4.824 8.336C4.84267 8.93333 4.91733 9.344 5.048 9.568C5.14133 9.68933 5.26267 9.75 5.412 9.75C5.70133 9.75 6.06067 9.54467 6.49 9.134C6.16333 8.35933 6 7.65933 6 7.034C6 5.75533 6.602 5.116 7.806 5.116C8.21667 5.116 8.55733 5.23733 8.828 5.48C9.108 5.71333 9.248 6.00733 9.248 6.362C9.248 7.10867 8.83267 8.00467 8.002 9.05C8.34733 9.46067 8.62733 9.69867 8.842 9.764C9.15 9.764 9.612 9.19467 10.228 8.056C10.116 7.636 10.06 7.244 10.06 6.88C10.06 6.21733 10.1627 5.732 10.368 5.424C10.62 5.032 11.0353 4.836 11.614 4.836C12.202 4.836 12.5333 5.074 12.608 5.55C12.6267 5.69 12.636 5.83933 12.636 5.998C12.636 6.59533 12.3047 7.42133 11.642 8.476C11.8753 8.812 12.0947 9.01267 12.3 9.078C12.7293 9.078 13.0933 8.93333 13.392 8.644C13.504 8.54133 13.5973 8.448 13.672 8.364C13.756 8.27067 13.84 8.224 13.924 8.224C14.0547 8.224 14.12 8.378 14.12 8.686C14.12 9.25533 13.952 9.67533 13.616 9.946C13.28 10.2167 12.8413 10.352 12.3 10.352C11.7587 10.352 11.2873 10.0907 10.886 9.568C10.4007 10.2027 9.99933 10.646 9.682 10.898C9.10333 11.374 8.65067 11.612 8.324 11.612C8.16533 11.612 7.96 11.4813 7.708 11.22C7.46533 10.9493 7.22267 10.5993 6.98 10.17C6.532 10.59 6.08867 10.9353 5.65 11.206C5.21133 11.4767 4.84267 11.612 4.544 11.612C4.00267 11.612 3.54533 10.436 3.172 8.084C3.04133 7.28133 2.976 6.73067 2.976 6.432C2.99467 5.816 3.07867 5.38667 3.228 5.144C3.43333 4.84533 3.83467 4.696 4.432 4.696C4.656 4.696 4.82867 4.766 4.95 4.906C5.07133 5.03667 5.132 5.18133 5.132 5.34ZM7.526 7.86C7.834 7.384 7.988 7.006 7.988 6.726C7.988 6.43667 7.89 6.292 7.694 6.292C7.56333 6.292 7.47933 6.36667 7.442 6.516C7.414 6.656 7.4 6.84267 7.4 7.076C7.4 7.30933 7.442 7.57067 7.526 7.86Z" fill="white"/>
</svg>
